<mxfile host="app.diagrams.net" modified="2024-06-15T21:12:20.609Z" agent="Mozilla/5.0 (X11; Ubuntu; Linux x86_64; rv:126.0) Gecko/20100101 Firefox/126.0" etag="7gEIyWHNsFbVEKgguk4s" version="24.5.4" type="device">
  <diagram name="Pagina-1" id="_yejgkk97YETzckgYVP7">
    <mxGraphModel dx="1114" dy="586" grid="1" gridSize="10" guides="1" tooltips="1" connect="1" arrows="1" fold="1" page="1" pageScale="1" pageWidth="827" pageHeight="1169" math="0" shadow="0">
      <root>
        <mxCell id="0" />
        <mxCell id="1" parent="0" />
        <mxCell id="MqjtcC0ThTMmZNA3ZpvJ-2" value="Amazon S3" style="sketch=0;outlineConnect=0;fontColor=#232F3E;gradientColor=none;strokeColor=#ffffff;fillColor=#232F3E;dashed=0;verticalLabelPosition=middle;verticalAlign=bottom;align=center;html=1;whiteSpace=wrap;fontSize=10;fontStyle=1;spacing=3;shape=mxgraph.aws4.productIcon;prIcon=mxgraph.aws4.s3;" vertex="1" parent="1">
          <mxGeometry x="190" y="170" width="80" height="100" as="geometry" />
        </mxCell>
        <mxCell id="MqjtcC0ThTMmZNA3ZpvJ-4" value="Bitcoin Pipeline" style="sketch=0;outlineConnect=0;fontColor=#232F3E;gradientColor=none;strokeColor=#ffffff;fillColor=#232F3E;dashed=0;verticalLabelPosition=middle;verticalAlign=bottom;align=center;html=1;whiteSpace=wrap;fontSize=10;fontStyle=1;spacing=3;shape=mxgraph.aws4.productIcon;prIcon=mxgraph.aws4.step_functions;" vertex="1" parent="1">
          <mxGeometry x="540" y="230" width="80" height="110" as="geometry" />
        </mxCell>
        <mxCell id="MqjtcC0ThTMmZNA3ZpvJ-5" value="Step Functions Monero Pipeline" style="sketch=0;outlineConnect=0;fontColor=#232F3E;gradientColor=none;strokeColor=#ffffff;fillColor=#232F3E;dashed=0;verticalLabelPosition=middle;verticalAlign=bottom;align=center;html=1;whiteSpace=wrap;fontSize=10;fontStyle=1;spacing=3;shape=mxgraph.aws4.productIcon;prIcon=mxgraph.aws4.step_functions;" vertex="1" parent="1">
          <mxGeometry x="540" y="70" width="80" height="110" as="geometry" />
        </mxCell>
        <mxCell id="MqjtcC0ThTMmZNA3ZpvJ-6" value="Amazon Redshift" style="sketch=0;outlineConnect=0;fontColor=#232F3E;gradientColor=none;strokeColor=#ffffff;fillColor=#232F3E;dashed=0;verticalLabelPosition=middle;verticalAlign=bottom;align=center;html=1;whiteSpace=wrap;fontSize=10;fontStyle=1;spacing=3;shape=mxgraph.aws4.productIcon;prIcon=mxgraph.aws4.redshift;" vertex="1" parent="1">
          <mxGeometry x="710" y="180" width="80" height="110" as="geometry" />
        </mxCell>
        <mxCell id="MqjtcC0ThTMmZNA3ZpvJ-7" value="AWS Lambda" style="sketch=0;outlineConnect=0;fontColor=#232F3E;gradientColor=none;strokeColor=#ffffff;fillColor=#232F3E;dashed=0;verticalLabelPosition=middle;verticalAlign=bottom;align=center;html=1;whiteSpace=wrap;fontSize=10;fontStyle=1;spacing=3;shape=mxgraph.aws4.productIcon;prIcon=mxgraph.aws4.lambda;" vertex="1" parent="1">
          <mxGeometry x="370" y="170" width="80" height="100" as="geometry" />
        </mxCell>
        <mxCell id="MqjtcC0ThTMmZNA3ZpvJ-9" value="monero files" style="image;aspect=fixed;html=1;points=[];align=center;fontSize=12;image=img/lib/azure2/general/Files.svg;" vertex="1" parent="1">
          <mxGeometry x="50" y="60" width="64" height="70" as="geometry" />
        </mxCell>
        <mxCell id="MqjtcC0ThTMmZNA3ZpvJ-10" value="bitcoin files" style="image;aspect=fixed;html=1;points=[];align=center;fontSize=12;image=img/lib/azure2/general/Files.svg;" vertex="1" parent="1">
          <mxGeometry x="50" y="300" width="64" height="70" as="geometry" />
        </mxCell>
        <mxCell id="MqjtcC0ThTMmZNA3ZpvJ-11" value="upload" style="shape=flexArrow;endArrow=classic;html=1;rounded=0;" edge="1" parent="1" target="MqjtcC0ThTMmZNA3ZpvJ-2">
          <mxGeometry width="50" height="50" relative="1" as="geometry">
            <mxPoint x="114" y="320" as="sourcePoint" />
            <mxPoint x="164" y="270" as="targetPoint" />
          </mxGeometry>
        </mxCell>
        <mxCell id="MqjtcC0ThTMmZNA3ZpvJ-12" value="upload" style="shape=flexArrow;endArrow=classic;html=1;rounded=0;" edge="1" parent="1" source="MqjtcC0ThTMmZNA3ZpvJ-9" target="MqjtcC0ThTMmZNA3ZpvJ-2">
          <mxGeometry width="50" height="50" relative="1" as="geometry">
            <mxPoint x="130" y="160" as="sourcePoint" />
            <mxPoint x="180" y="110" as="targetPoint" />
          </mxGeometry>
        </mxCell>
        <mxCell id="MqjtcC0ThTMmZNA3ZpvJ-13" value="S3 Trigger" style="shape=flexArrow;endArrow=classic;html=1;rounded=0;" edge="1" parent="1" source="MqjtcC0ThTMmZNA3ZpvJ-2" target="MqjtcC0ThTMmZNA3ZpvJ-7">
          <mxGeometry width="50" height="50" relative="1" as="geometry">
            <mxPoint x="290" y="230" as="sourcePoint" />
            <mxPoint x="340" y="180" as="targetPoint" />
          </mxGeometry>
        </mxCell>
        <mxCell id="MqjtcC0ThTMmZNA3ZpvJ-14" value="" style="shape=flexArrow;endArrow=classic;html=1;rounded=0;" edge="1" parent="1" target="MqjtcC0ThTMmZNA3ZpvJ-5">
          <mxGeometry width="50" height="50" relative="1" as="geometry">
            <mxPoint x="450" y="190" as="sourcePoint" />
            <mxPoint x="530" y="120" as="targetPoint" />
          </mxGeometry>
        </mxCell>
        <mxCell id="MqjtcC0ThTMmZNA3ZpvJ-16" value="" style="shape=flexArrow;endArrow=classic;html=1;rounded=0;" edge="1" parent="1" source="MqjtcC0ThTMmZNA3ZpvJ-4">
          <mxGeometry width="50" height="50" relative="1" as="geometry">
            <mxPoint x="660" y="270" as="sourcePoint" />
            <mxPoint x="710" y="220" as="targetPoint" />
          </mxGeometry>
        </mxCell>
        <mxCell id="MqjtcC0ThTMmZNA3ZpvJ-18" value="" style="shape=flexArrow;endArrow=classic;html=1;rounded=0;" edge="1" parent="1" target="MqjtcC0ThTMmZNA3ZpvJ-6">
          <mxGeometry width="50" height="50" relative="1" as="geometry">
            <mxPoint x="620" y="120" as="sourcePoint" />
            <mxPoint x="670" y="70" as="targetPoint" />
          </mxGeometry>
        </mxCell>
        <mxCell id="MqjtcC0ThTMmZNA3ZpvJ-19" value="" style="shape=flexArrow;endArrow=classic;html=1;rounded=0;entryX=0;entryY=0.364;entryDx=0;entryDy=0;entryPerimeter=0;" edge="1" parent="1" target="MqjtcC0ThTMmZNA3ZpvJ-4">
          <mxGeometry width="50" height="50" relative="1" as="geometry">
            <mxPoint x="450" y="230" as="sourcePoint" />
            <mxPoint x="500" y="180" as="targetPoint" />
          </mxGeometry>
        </mxCell>
      </root>
    </mxGraphModel>
  </diagram>
</mxfile>
